<?xml version="1.0" encoding="UTF-8" standalone="no"?>
<!-- Created with Inkscape (http://www.inkscape.org/) -->

<svg
   width="210mm"
   height="297mm"
   viewBox="0 0 210 297"
   version="1.1"
   id="svg1"
   inkscape:version="1.3 (0e150ed6c4, 2023-07-21)"
   sodipodi:docname="Final.svg"
   xmlns:inkscape="http://www.inkscape.org/namespaces/inkscape"
   xmlns:sodipodi="http://sodipodi.sourceforge.net/DTD/sodipodi-0.dtd"
   xmlns="http://www.w3.org/2000/svg"
   xmlns:svg="http://www.w3.org/2000/svg">
  <sodipodi:namedview
     id="namedview1"
     pagecolor="#ffffff"
     bordercolor="#000000"
     borderopacity="0.25"
     inkscape:showpageshadow="2"
     inkscape:pageopacity="0.0"
     inkscape:pagecheckerboard="0"
     inkscape:deskcolor="#d1d1d1"
     inkscape:document-units="mm"
     showguides="false"
     inkscape:zoom="0.79748907"
     inkscape:cx="270.85011"
     inkscape:cy="829.47845"
     inkscape:window-width="1600"
     inkscape:window-height="829"
     inkscape:window-x="-8"
     inkscape:window-y="-8"
     inkscape:window-maximized="1"
     inkscape:current-layer="layer1"
     showgrid="true">
    <inkscape:grid
       id="grid20"
       units="mm"
       originx="0"
       originy="0"
       spacingx="0.99999998"
       spacingy="1"
       empcolor="#0099e5"
       empopacity="0.30196078"
       color="#0099e5"
       opacity="0.14901961"
       empspacing="5"
       dotted="false"
       gridanglex="30"
       gridanglez="30"
       visible="true" />
  </sodipodi:namedview>
  <defs
     id="defs1">
    <inkscape:path-effect
       effect="ruler"
       id="path-effect1"
       is_visible="true"
       lpeversion="1"
       unit="px"
       mark_distance="20"
       mark_length="14"
       minor_mark_length="7"
       major_mark_steps="5"
       shift="0"
       offset="0"
       mark_dir="left"
       border_marks="both" />
  </defs>
  <g
     inkscape:label="Calque 1"
     inkscape:groupmode="layer"
     id="layer1">
    <path
       id="floor"
       style="fill:#999999;stroke-width:0.208449"
       inkscape:label="floor"
       d="m 94.864765,36.204268 a 46.231766,26.75675 0 0 0 -42.071337,16.01556 l -3.168799,6.03374 a 46.231766,26.75675 0 0 0 -0.125574,0.372587 l -0.432531,0.797884 h -0.05684 l -1.72238,3.279387 -41.517879,76.532794 a 17.764141,11.473986 42.963597 0 0 -0.773596,2.73472 v 1.26091 l -0.02326,0.0444 v 24.6295 h 14.999602 v 71.99819 H 4.972574 v 16.3003 h 14.569137 a 89.396309,13.139739 0 0 1 74.864164,-5.98982 89.396309,13.139739 0 0 1 74.995425,5.98982 h 14.39292 v -16.3003 h -14.9996 v -71.99815 h 14.9996 V 143.6897 l -0.0424,0.0217 a 11.682534,18.176184 49.854741 0 0 -0.83664,-4.35219 l -0.30696,-0.58446 a 11.682534,18.176184 49.854741 0 0 -0.13488,-0.23926 l 0.007,-0.004 -41.54578,-79.107837 h -0.0935 a 46.231766,26.75675 0 0 0 -0.16743,-0.497644 l -3.76825,-7.17579 A 46.231766,26.75675 0 0 0 95.189285,36.204268 Z M 75.672652,63.811885 a 2.5000001,2.5000001 0 0 1 2.500105,2.500106 2.5000001,2.5000001 0 0 1 -2.500105,2.500106 2.5000001,2.5000001 0 0 1 -2.499589,-2.500106 2.5000001,2.5000001 0 0 1 2.499589,-2.500106 z m 38.600228,0 a 2.5000001,2.5000001 0 0 1 2.50011,2.500106 2.5000001,2.5000001 0 0 1 -2.50011,2.500106 2.5000001,2.5000001 0 0 1 -2.5001,-2.500106 2.5000001,2.5000001 0 0 1 2.5001,-2.500106 z M 79.483272,105.41968 h 29.800248 v 2.99982 H 79.483272 Z m -9.099703,22.78517 a 2.3,2.3000001 0 0 1 2.300118,2.2996 2.3,2.3000001 0 0 1 -2.300118,2.30012 2.3,2.3000001 0 0 1 -2.300118,-2.30012 2.3,2.3000001 0 0 1 2.300118,-2.2996 z m 40.299871,0 a 2.3,2.3000001 0 0 1 2.30012,2.2996 2.3,2.3000001 0 0 1 -2.30012,2.30012 2.3,2.3000001 0 0 1 -2.30012,-2.30012 2.3,2.3000001 0 0 1 2.30012,-2.2996 z m -5.32577,2.19935 -7.471905,4.639 -7.47189,4.63899 -7.51169,-4.63072 -7.511687,-4.63073 14.983577,-0.008 z m -35.26814,4.79558 7.440889,3.50934 7.440886,3.50935 -7.453805,3.49023 -7.454325,3.49074 0.01344,-7.00009 z m 40.57582,0 0.0129,6.99957 0.0134,7.00009 -7.45433,-3.49074 -7.454325,-3.49023 7.440895,-3.50935 z m -20.251475,10.11463 7.47189,4.63899 7.471905,4.63899 -14.983595,-0.008 -14.983577,-0.008 7.511687,-4.63072 z m -20.030306,7.09 a 2.3,2.3000001 0 0 1 2.300118,2.30012 2.3,2.3000001 0 0 1 -2.300118,2.30012 2.3,2.3000001 0 0 1 -2.300118,-2.30012 2.3,2.3000001 0 0 1 2.300118,-2.30012 z m 40.299871,0 a 2.3,2.3000001 0 0 1 2.30012,2.30012 2.3,2.3000001 0 0 1 -2.30012,2.30012 2.3,2.3000001 0 0 1 -2.30012,-2.30012 2.3,2.3000001 0 0 1 2.30012,-2.30012 z m -55.860678,24.8419 a 1.3500001,1.35 0 0 1 1.350305,1.3503 1.3500001,1.35 0 0 1 -1.350305,1.34979 1.3500001,1.35 0 0 1 -1.349789,-1.34979 1.3500001,1.35 0 0 1 1.349789,-1.3503 z m 58.000078,0 a 1.3500001,1.35 0 0 1 1.34979,1.3503 1.3500001,1.35 0 0 1 -1.34979,1.34979 1.3500001,1.35 0 0 1 -1.34978,-1.34979 1.3500001,1.35 0 0 1 1.34978,-1.3503 z m -50.221225,0.44907 21.81934,0.0894 21.819345,0.0889 -10.997785,10.91096 -10.99726,10.91096 -10.822078,-10.99984 z m 50.618105,9.20719 0.0543,16.00005 0.0543,16.00006 -11.64477,-7.94164 -11.645285,-7.94111 11.590515,-8.05894 z m -58.835175,0.0315 11.621513,8.00778 11.621513,8.00778 -11.614278,7.99227 -11.614278,7.99228 -0.0072,-16.00006 z m -11.586373,11.46441 h 3.000334 v 15.00012 h -3.000334 z m 100.079168,0 h 3.00033 v 15.00012 h -3.00033 z m -58.632085,7.62951 10.99726,10.91096 10.997785,10.91097 -21.819345,0.0889 -21.81934,0.0894 10.821562,-11.00036 z M 54.822762,226.2464 a 1.3500001,1.35 0 0 1 1.350305,1.3503 1.3500001,1.35 0 0 1 -1.350305,1.34979 1.3500001,1.35 0 0 1 -1.349789,-1.34979 1.3500001,1.35 0 0 1 1.349789,-1.3503 z m 58.000078,0 a 1.3500001,1.35 0 0 1 1.34979,1.3503 1.3500001,1.35 0 0 1 -1.34979,1.34979 1.3500001,1.35 0 0 1 -1.34978,-1.34979 1.3500001,1.35 0 0 1 1.34978,-1.3503 z" />
    <path
       id="rect13"
       style="opacity:1;fill:#8e94a8;fill-opacity:1;stroke-width:0.27402"
       inkscape:label="primo support cam"
       d="M 121.34693,5.9054021 V 35.905121 H 201.3467 V 5.9054021 Z m 12.40235,7.7369949 a 2.2394507,2.2394507 0 0 1 2.23965,2.239657 2.2394507,2.2394507 0 0 1 -2.23965,2.23914 2.2394507,2.2394507 0 0 1 -2.23966,-2.23914 2.2394507,2.2394507 0 0 1 2.23966,-2.239657 z m 54.72121,0 a 2.2394507,2.2394507 0 0 1 2.23913,2.239657 2.2394507,2.2394507 0 0 1 -2.23913,2.23914 2.2394507,2.2394507 0 0 1 -2.23966,-2.23914 2.2394507,2.2394507 0 0 1 2.23966,-2.239657 z m -41.92354,4.206462 h 29.59974 v 2.999817 h -29.59974 z m -12.58011,5.847705 a 2.2394507,2.2394507 0 0 1 2.23914,2.239656 2.2394507,2.2394507 0 0 1 -2.23914,2.23914 2.2394507,2.2394507 0 0 1 -2.23966,-2.23914 2.2394507,2.2394507 0 0 1 2.23966,-2.239656 z m 54.50365,0 a 2.2394507,2.2394507 0 0 1 2.23913,2.239656 2.2394507,2.2394507 0 0 1 -2.23913,2.23914 2.2394507,2.2394507 0 0 1 -2.23966,-2.23914 2.2394507,2.2394507 0 0 1 2.23966,-2.239656 z" />
    <path
       id="path19"
       style="opacity:1;fill:#999999;fill-opacity:1;stroke-width:0.36311"
       d="M 3.4710887,33.177048 V 47.856255 H 18.471209 v 10.320817 h 15.00011 V 47.856255 h 14.9996 V 33.177048 Z M 26.501209,52.414117 a 2.4632702,2.4632702 0 0 1 2.4629,2.463415 2.4632702,2.4632702 0 0 1 -2.4629,2.462899 2.4632702,2.4632702 0 0 1 -2.46342,-2.462899 2.4632702,2.4632702 0 0 1 2.46342,-2.463415 z"
       inkscape:label="soutien moteurs" />
    <path
       id="path22"
       style="opacity:1;fill:#999999;fill-opacity:1;stroke-width:0.453965"
       inkscape:label="soutien moteurs"
       d="M 15.000118 257.84473 L 15.000118 273.97656 L 0 273.97656 L 0 296.92089 L 44.999837 296.92089 L 44.999837 273.97656 L 30.000236 273.97656 L 30.000236 257.84473 L 15.000118 257.84473 z M 23.030119 260.61872 A 2.4632702 3.8501638 0 0 1 25.493018 264.46913 A 2.4632702 3.8501638 0 0 1 23.030119 268.31851 A 2.4632702 3.8501638 0 0 1 20.566703 264.46913 A 2.4632702 3.8501638 0 0 1 23.030119 260.61872 z M 32.057475 275.00957 A 1.7 1.7 0 0 1 33.757629 276.70972 A 1.7 1.7 0 0 1 32.057475 278.40988 A 1.7 1.7 0 0 1 30.35732 276.70972 A 1.7 1.7 0 0 1 32.057475 275.00957 z M 32.571139 292.56302 A 1.7 1.7 0 0 1 34.270776 294.26318 A 1.7 1.7 0 0 1 32.571139 295.96333 A 1.7 1.7 0 0 1 30.870984 294.26318 A 1.7 1.7 0 0 1 32.571139 292.56302 z " />
    <path
       id="path23"
       style="opacity:1;fill:#999999;fill-opacity:1;stroke-width:0.36311"
       d="M 0,0 V 14.679207 H 15.00012 V 25.000024 H 30.00023 V 14.679207 h 14.9996 V 0 Z m 23.03012,19.237069 a 2.4632702,2.4632702 0 0 1 2.4629,2.463415 2.4632702,2.4632702 0 0 1 -2.4629,2.462899 2.4632702,2.4632702 0 0 1 -2.46342,-2.462899 2.4632702,2.4632702 0 0 1 2.46342,-2.463415 z"
       inkscape:label="soutien moteurs" />
    <rect
       style="opacity:1;fill:#999999;fill-opacity:1;stroke-width:0.641693"
       id="rect26"
       width="45"
       height="14.65396"
       x="104.58138"
       y="275.51242" />
    <rect
       style="opacity:1;fill:#999999;fill-opacity:1;stroke-width:0.641693"
       id="rect27"
       width="45"
       height="14.65396"
       x="155.67404"
       y="273.99673" />
    <rect
       style="opacity:1;fill:#999999;fill-opacity:1;stroke-width:0.641693"
       id="rect28"
       width="45"
       height="14.65396"
       x="157.66466"
       y="69.814735" />
    <rect
       style="opacity:1;fill:#999999;fill-opacity:1;stroke-width:0.641693"
       id="rect29"
       width="45"
       height="14.65396"
       x="145.3582"
       y="-206.07079"
       transform="rotate(90)" />
    <rect
       style="opacity:1;fill:#999999;fill-opacity:1;stroke-width:0.641693"
       id="rect30"
       width="45"
       height="14.65396"
       x="102.59075"
       y="255.48215" />
    <rect
       style="opacity:1;fill:#999999;fill-opacity:1;stroke-width:0.641693"
       id="rect31"
       width="45"
       height="14.65396"
       x="151.02925"
       y="45.929226" />
    <rect
       style="opacity:1;fill:#999999;fill-opacity:1;stroke-width:0.641693"
       id="rect32"
       width="45"
       height="14.65396"
       x="-137.40831"
       y="-205.40724"
       transform="matrix(0,-1,-1,0,0,0)" />
    <rect
       style="opacity:1;fill:#999999;fill-opacity:1;stroke-width:0.641693"
       id="rect33"
       width="45"
       height="14.65396"
       x="202.42964"
       y="-206.73431"
       inkscape:label="rect33"
       transform="rotate(90)" />
    <rect
       style="opacity:1;fill:#999999;fill-opacity:1;stroke-width:0.132603"
       id="rect34"
       width="29.799999"
       height="30"
       x="64.363464"
       y="2.6541605"
       inkscape:label="Soutien inferieur bas pied cam" />
    <path
       id="path37"
       style="opacity:1;fill:#999999;fill-opacity:1;stroke-width:0.453965"
       inkscape:label="soutien moteurs"
       d="m 64.741816,257.84473 v 16.13183 H 49.741692 v 22.94433 H 94.741535 V 273.97656 H 79.741934 v -16.13183 z m 8.030001,2.77399 a 2.4632702,3.8501638 0 0 1 2.462899,3.85041 2.4632702,3.8501638 0 0 1 -2.462899,3.84938 2.4632702,3.8501638 0 0 1 -2.463416,-3.84938 2.4632702,3.8501638 0 0 1 2.463416,-3.85041 z m 9.027356,14.39085 a 1.7,1.7 0 0 1 1.700154,1.70015 1.7,1.7 0 0 1 -1.700154,1.70016 1.7,1.7 0 0 1 -1.700155,-1.70016 1.7,1.7 0 0 1 1.700155,-1.70015 z m 0.513664,17.55345 a 1.7,1.7 0 0 1 1.699637,1.70016 1.7,1.7 0 0 1 -1.699637,1.70015 1.7,1.7 0 0 1 -1.700155,-1.70015 1.7,1.7 0 0 1 1.700155,-1.70016 z" />
  </g>
</svg>
